<svg xmlns="http://www.w3.org/2000/svg" viewBox="0 0 1131.54 410.39"><title>Asset 1</title><g id="Layer_2" data-name="Layer 2"><g id="Layer_3" data-name="Layer 3"><path d="M462.86,225q15.07,29,44.43,48l-6.6,9.74c-17.9-11.93-32.19-27.79-43-47.42-11.93,19.78-26.37,36-43.18,48.2l-5.18-7.54v73.33H398.8V340.9H379.17v11.77H368.49V236.81h40.83v36.11A153,153,0,0,0,452.66,225ZM398.8,330.23V247.17H379.17v83.06Zm93,37.52h-11V358.8h-46v8.94H423.92V304.47h67.84Zm-7.23-94.2v10.52H430.2V273.54Zm-3.77,74.74V314.84h-46v33.44Z"/><path d="M720.74,333.84H692.79V345H682.43V236.33h38.31Zm-10.36-10.36V246.7H692.79v76.77Zm61.55-27a103.82,103.82,0,0,1-4.24,10.36h52.13V317H802.39c-2.51,10.67-7.23,19.78-14.45,27.16,11.14,4.55,22,9.58,32.34,14.92l-6.12,8.94a358.55,358.55,0,0,0-34.54-16.79c-10.52,7.06-27,12.71-49.45,16.79l-4.24-9.89c17.74-3,31.56-7.06,41.6-12.09q-12.72-5.18-26.85-10.36c4.08-6.59,7.54-12.72,10.68-18.68h-22.3V306.83h27.17c1.73-4.08,3.29-8,4.55-11.62Zm7.22-32V294h-11V264.44h-.47c-10.21,14.76-22,25.91-35.33,33.13l-6.12-8.79A98.11,98.11,0,0,0,758,264.44H731.58V254.23h36.59V223.46h11v30.77h36.43v10.21H788.88c6.6,9.11,17.28,17.27,31.87,24.5L814,297.57c-16-10-27.48-21-34.07-33.13Zm-21.51-18.37-9.27,4.08a139.1,139.1,0,0,0-11.14-21.67l9.58-3.14A144.36,144.36,0,0,1,757.64,246.07Zm5,71a144.13,144.13,0,0,1-8.79,14.28c7.85,2.51,15.7,5.34,23.39,8.48A44.18,44.18,0,0,0,791.87,317Zm48-88.55a117.17,117.17,0,0,1-13.18,21.82L789,245.76a112.28,112.28,0,0,0,12.88-21.67Z"/><path d="M1017.72,254.39V223.77H1029v30.62h18.53v10.83H1029v10a328.21,328.21,0,0,1,23.23,26.06l-6.59,9.74c-6.44-10.52-11.93-19-16.65-25.28v81h-11.3v-81A180,180,0,0,1,994,331.48l-5-12.56a144.44,144.44,0,0,0,28.1-53.7h-24.5V254.39Zm55.89,111.31-2.36-11c8.8.32,17.11.63,25.12.63,4.71,0,7.07-2.67,7.07-7.85V266.16h-48.2V255.33h48.2V224.56h11.3v30.77h16.8v10.83h-16.8v84.31c0,10-4.86,15.23-14.45,15.23Zm17.27-45.84-9.1,6.59a304.15,304.15,0,0,0-24-37.52l9.26-5.81C1077.38,297.1,1085.38,309.34,1090.88,319.86Z"/><path d="M152.64,410.39a110.29,110.29,0,0,1-55.12-14.71A159.63,159.63,0,0,1,53.92,359a212,212,0,0,1-36.51-63A309.93,309.93,0,0,1,.19,225.37l13.27-1.64a296.81,296.81,0,0,0,16.49,67.6,198.93,198.93,0,0,0,34.25,59.12,146.51,146.51,0,0,0,40,33.66,97.25,97.25,0,0,0,96.88,0,146.46,146.46,0,0,0,40-33.66,198.89,198.89,0,0,0,34.25-59.12,296.81,296.81,0,0,0,16.49-67.6l13.27,1.64A310,310,0,0,1,287.86,296a212,212,0,0,1-36.51,63,159.58,159.58,0,0,1-43.59,36.68A110.32,110.32,0,0,1,152.64,410.39Z"/><path d="M292,148.46a297.81,297.81,0,0,0-17.83-72.25,193.58,193.58,0,0,0-33.46-56.45,171.29,171.29,0,0,0-17.39,23.46A231.37,231.37,0,0,0,206.45,76l-2.29,5.47-5.7-1.61A163.33,163.33,0,0,0,154,73.71h-2.72a163.33,163.33,0,0,0-44.47,6.17l-5.7,1.61L98.82,76A231.4,231.4,0,0,0,82,43.22,171.25,171.25,0,0,0,64.56,19.76,193.58,193.58,0,0,0,31.1,76.21a297.82,297.82,0,0,0-17.83,72.25L0,146.88A311,311,0,0,1,18.62,71.43,207,207,0,0,1,59.54,5.26L64.36,0l4.93,5.15a184.83,184.83,0,0,1,24,31,244.21,244.21,0,0,1,15.52,29.33,176.55,176.55,0,0,1,42.44-5.17H154a176.57,176.57,0,0,1,42.44,5.17A244.47,244.47,0,0,1,212,36.19a184.82,184.82,0,0,1,24-31L240.92,0l4.82,5.26a207,207,0,0,1,40.92,66.17,311,311,0,0,1,18.62,75.45Z"/><circle cx="152.61" cy="337.98" r="22.28"/><path d="M382,99H416V68.22h11.88v78.66H416V110.15H382v36.73H370.16V68.22H382Z"/><path d="M490.09,79.38H458.56v18.9h30.62v11.16H458.56v26.29h31.54v11.16h-43.4V68.22h43.4Z"/><path d="M517.55,68.22v67.51h23.13v11.16h-35V68.22Z"/><path d="M563.81,68.22v67.51h23.13v11.16h-35V68.22Z"/><path d="M591.07,107.19a38.53,38.53,0,0,1,12.17-28.53,40.07,40.07,0,0,1,29.14-11.92,41.13,41.13,0,0,1,40.91,40.91,38.7,38.7,0,0,1-12.13,28.79,40.58,40.58,0,0,1-29.39,11.87q-15.24,0-27.36-10.55Q591.07,126.1,591.07,107.19Zm12,.15q0,13,8.77,21.45a29,29,0,0,0,41-.15,29,29,0,0,0,8.51-21.09,28.82,28.82,0,0,0-8.41-21.09,29.33,29.33,0,0,0-41.42,0A28.36,28.36,0,0,0,603,107.35Z"/><path d="M724.39,68.22l21.76,54.52,22.06-54.52h13l-35.3,84.57L711.4,68.22Z"/><path d="M802.85,68.22v78.66H791V68.22Z"/><path d="M833.62,68.22v67.51h23.13v11.16h-35V68.22Z"/><path d="M879.88,68.22v67.51H903v11.16H868V68.22Z"/><path d="M964.87,127.78H931.19l-8.77,19.1H909.64l38.92-83.6,37.55,83.6h-13ZM960,116.62,948.36,89.87l-12.23,26.75Z"/><path d="M1032.83,105.92h32.5v2.6a53.7,53.7,0,0,1-2.09,15.69,33.54,33.54,0,0,1-6.88,11.82q-11,12.33-27.87,12.33a38.29,38.29,0,0,1-28.27-11.92,39.52,39.52,0,0,1-11.77-28.74,40.88,40.88,0,0,1,41.11-41,39.9,39.9,0,0,1,17.22,3.77q7.64,3.77,15,12.23l-8.45,8.1q-9.69-12.89-23.6-12.89a28.14,28.14,0,0,0-20.93,8.61q-8.46,8.46-8.46,21.19a27.88,27.88,0,0,0,9.43,21.65q8.81,7.9,19.1,7.9a23.73,23.73,0,0,0,15.75-5.91,21.07,21.07,0,0,0,7.79-14.27h-19.61Z"/><path d="M1123.67,79.38h-31.54v18.9h30.62v11.16h-30.62v26.29h31.54v11.16h-43.4V68.22h43.4Z"/></g></g></svg>