<svg xmlns="http://www.w3.org/2000/svg" viewBox="0 0 1131.54 410.39"><title>Asset 1</title><g data-name="Layer 3"><path d="M462.86 225q15.07 29 44.43 48l-6.6 9.74c-17.9-11.93-32.19-27.79-43-47.42-11.93 19.78-26.37 36-43.18 48.2l-5.18-7.54v73.33H398.8v-8.41h-19.63v11.77h-10.68V236.81h40.83v36.11A153 153 0 0 0 452.66 225zM398.8 330.23v-83.06h-19.63v83.06zm93 37.52h-11v-8.95h-46v8.94h-10.88v-63.27h67.84zm-7.23-94.2v10.52H430.2v-10.53zm-3.77 74.74v-33.45h-46v33.44zm239.94-14.45h-27.95V345h-10.36V236.33h38.31zm-10.36-10.36V246.7h-17.59v76.77zm61.55-27a103.82 103.82 0 0 1-4.24 10.36h52.13V317h-17.43c-2.51 10.67-7.23 19.78-14.45 27.16 11.14 4.55 22 9.58 32.34 14.92l-6.12 8.94a358.55 358.55 0 0 0-34.54-16.79c-10.52 7.06-27 12.71-49.45 16.79l-4.24-9.89c17.74-3 31.56-7.06 41.6-12.09q-12.72-5.18-26.85-10.36A306.33 306.33 0 0 0 751.36 317h-22.3v-10.17h27.17c1.73-4.08 3.29-8 4.55-11.62zm7.22-32V294h-11v-29.56h-.47c-10.21 14.76-22 25.91-35.33 33.13l-6.12-8.79A98.11 98.11 0 0 0 758 264.44h-26.42v-10.21h36.59v-30.77h11v30.77h36.43v10.21h-26.72c6.6 9.11 17.28 17.27 31.87 24.5l-6.75 8.63c-16-10-27.48-21-34.07-33.13zm-21.51-18.37l-9.27 4.08a139.1 139.1 0 0 0-11.14-21.67l9.58-3.14a144.36 144.36 0 0 1 10.83 20.69zm5 71a144.13 144.13 0 0 1-8.79 14.28c7.85 2.51 15.7 5.34 23.39 8.48A44.18 44.18 0 0 0 791.87 317zm48-88.55a117.17 117.17 0 0 1-13.18 21.82l-8.46-4.62a112.28 112.28 0 0 0 12.88-21.67zm207.08 25.83v-30.62H1029v30.62h18.53v10.83H1029v10a328.21 328.21 0 0 1 23.23 26.06l-6.59 9.74c-6.44-10.52-11.93-19-16.65-25.28v81h-11.3v-81A180 180 0 0 1 994 331.48l-5-12.56a144.44 144.44 0 0 0 28.1-53.7h-24.5v-10.83zm55.89 111.31l-2.36-11c8.8.32 17.11.63 25.12.63 4.71 0 7.07-2.67 7.07-7.85v-81.32h-48.2v-10.83h48.2v-30.77h11.3v30.77h16.8v10.83h-16.8v84.31c0 10-4.86 15.23-14.45 15.23zm17.27-45.84l-9.1 6.59a304.15 304.15 0 0 0-24-37.52l9.26-5.81c10.34 13.98 18.34 26.22 23.84 36.74zm-938.24 90.53a110.29 110.29 0 0 1-55.12-14.71A159.63 159.63 0 0 1 53.92 359a212 212 0 0 1-36.51-63A309.93 309.93 0 0 1 .19 225.37l13.27-1.64a296.81 296.81 0 0 0 16.49 67.6 198.93 198.93 0 0 0 34.25 59.12 146.51 146.51 0 0 0 40 33.66 97.25 97.25 0 0 0 96.88 0 146.46 146.46 0 0 0 40-33.66 198.89 198.89 0 0 0 34.25-59.12 296.81 296.81 0 0 0 16.49-67.6l13.27 1.64A310 310 0 0 1 287.86 296a212 212 0 0 1-36.51 63 159.58 159.58 0 0 1-43.59 36.68 110.32 110.32 0 0 1-55.12 14.71zM292 148.46a297.81 297.81 0 0 0-17.83-72.25 193.58 193.58 0 0 0-33.46-56.45 171.29 171.29 0 0 0-17.39 23.46A231.37 231.37 0 0 0 206.45 76l-2.29 5.47-5.7-1.61A163.33 163.33 0 0 0 154 73.71h-2.72a163.33 163.33 0 0 0-44.47 6.17l-5.7 1.61L98.82 76A231.4 231.4 0 0 0 82 43.22a171.25 171.25 0 0 0-17.44-23.46A193.58 193.58 0 0 0 31.1 76.21a297.82 297.82 0 0 0-17.83 72.25L0 146.88a311 311 0 0 1 18.62-75.45A207 207 0 0 1 59.54 5.26L64.36 0l4.93 5.15a184.83 184.83 0 0 1 24 31 244.21 244.21 0 0 1 15.52 29.33 176.55 176.55 0 0 1 42.44-5.17H154a176.57 176.57 0 0 1 42.44 5.17A244.47 244.47 0 0 1 212 36.19a184.82 184.82 0 0 1 24-31L240.92 0l4.82 5.26a207 207 0 0 1 40.92 66.17 311 311 0 0 1 18.62 75.45z"/><circle cx="152.61" cy="337.98" r="22.28"/><path d="M382 99h34V68.22h11.88v78.66H416v-36.73h-34v36.73h-11.84V68.22H382zm108.09-19.62h-31.53v18.9h30.62v11.16h-30.62v26.29h31.54v11.16h-43.4V68.22h43.4zm27.46-11.16v67.51h23.13v11.16h-35V68.22zm46.26 0v67.51h23.13v11.16h-35V68.22zm27.26 38.97a38.53 38.53 0 0 1 12.17-28.53 40.07 40.07 0 0 1 29.14-11.92 41.13 41.13 0 0 1 40.91 40.91 38.7 38.7 0 0 1-12.13 28.79 40.58 40.58 0 0 1-29.39 11.87q-15.24 0-27.36-10.55-13.34-11.66-13.34-30.57zm12 .15q0 13 8.77 21.45a29 29 0 0 0 41-.15 29 29 0 0 0 8.51-21.09 28.82 28.82 0 0 0-8.41-21.09 29.33 29.33 0 0 0-41.42 0 28.36 28.36 0 0 0-8.52 20.89zm121.32-39.12l21.76 54.52 22.06-54.52h13l-35.3 84.57-34.51-84.57zm78.46 0v78.66H791V68.22zm30.77 0v67.51h23.13v11.16h-35V68.22zm46.26 0v67.51H903v11.16h-35V68.22zm84.99 59.56h-33.68l-8.77 19.1h-12.78l38.92-83.6 37.55 83.6h-13zM960 116.62l-11.64-26.75-12.23 26.75zm72.83-10.7h32.5v2.6a53.7 53.7 0 0 1-2.09 15.69 33.54 33.54 0 0 1-6.88 11.82q-11 12.33-27.87 12.33a38.29 38.29 0 0 1-28.27-11.92 39.52 39.52 0 0 1-11.77-28.74 40.88 40.88 0 0 1 41.11-41 39.9 39.9 0 0 1 17.22 3.77q7.64 3.77 15 12.23l-8.45 8.1q-9.69-12.89-23.6-12.89a28.14 28.14 0 0 0-20.93 8.61q-8.46 8.46-8.46 21.19a27.88 27.88 0 0 0 9.43 21.65q8.81 7.9 19.1 7.9a23.73 23.73 0 0 0 15.75-5.91 21.07 21.07 0 0 0 7.79-14.27h-19.61zm90.84-26.54h-31.54v18.9h30.62v11.16h-30.62v26.29h31.54v11.16h-43.4V68.22h43.4z"/></g></svg>